<?xml version="1.0" encoding="UTF-8" standalone="no"?>
<svg
   xmlns:ooo="http://xml.openoffice.org/svg/export"
   xmlns:dc="http://purl.org/dc/elements/1.1/"
   xmlns:cc="http://creativecommons.org/ns#"
   xmlns:rdf="http://www.w3.org/1999/02/22-rdf-syntax-ns#"
   xmlns:svg="http://www.w3.org/2000/svg"
   xmlns="http://www.w3.org/2000/svg"
   xmlns:sodipodi="http://sodipodi.sourceforge.net/DTD/sodipodi-0.dtd"
   xmlns:inkscape="http://www.inkscape.org/namespaces/inkscape"
   version="1.2"
   width="256mm"
   height="256mm"
   viewBox="0 0 25600 25600"
   preserveAspectRatio="xMidYMid"
   xml:space="preserve"
   id="svg271"
   sodipodi:docname="master.svg"
   inkscape:version="0.92.5 (2060ec1f9f, 2020-04-08)"
   style="fill-rule:evenodd;stroke-width:28.22200012;stroke-linejoin:round"
   inkscape:export-filename="/home/data/Paolo/Share/Web Team/curcumy/lab/icon.png"
   inkscape:export-xdpi="25"
   inkscape:export-ydpi="25"><metadata
   id="metadata275"><rdf:RDF><cc:Work
       rdf:about=""><dc:format>image/svg+xml</dc:format><dc:type
         rdf:resource="http://purl.org/dc/dcmitype/StillImage" /><dc:title></dc:title></cc:Work></rdf:RDF></metadata><sodipodi:namedview
   pagecolor="#ffffff"
   bordercolor="#666666"
   borderopacity="1"
   objecttolerance="10"
   gridtolerance="10"
   guidetolerance="10"
   inkscape:pageopacity="0"
   inkscape:pageshadow="2"
   inkscape:window-width="1714"
   inkscape:window-height="913"
   id="namedview273"
   showgrid="false"
   inkscape:zoom="0.25451308"
   inkscape:cx="-753.60576"
   inkscape:cy="321.94394"
   inkscape:window-x="28"
   inkscape:window-y="62"
   inkscape:window-maximized="0"
   inkscape:current-layer="svg271" />
 <defs
   class="ClipPathGroup"
   id="defs8">
  <clipPath
   id="presentation_clip_path"
   clipPathUnits="userSpaceOnUse">
   <rect
   x="0"
   y="0"
   width="17348"
   height="17348"
   id="rect2" />
  </clipPath>
  <clipPath
   id="presentation_clip_path_shrink"
   clipPathUnits="userSpaceOnUse">
   <rect
   x="17"
   y="17"
   width="17314"
   height="17314"
   id="rect5" />
  </clipPath>
 
  
  
 
   
  
    
   
     
    
      
      
      
     
   
  
    
   
     
    
      
     
       
       
      
       
       
       
      
        
       
         
         
        </defs>
 <defs
   class="TextShapeIndex"
   id="defs14">
  <g
   ooo:slide="id1"
   ooo:id-list="id4 id5 id6"
   id="g10" />
  <g
   ooo:slide="id2"
   ooo:id-list="id7 id8 id9 id10 id11 id12 id13 id14 id15 id16 id17 id18 id19 id20 id21 id22 id23 id24 id25 id26 id27 id28 id29"
   id="g12" />
 </defs>
 <defs
   class="EmbeddedBulletChars"
   id="defs46">
  <g
   id="bullet-char-template-57356"
   transform="matrix(4.8828125e-4,0,0,-4.8828125e-4,0,0)">
   <path
   d="M 580,1141 1163,571 580,0 -4,571 Z"
   id="path16"
   inkscape:connector-curvature="0" />
  </g>
  <g
   id="bullet-char-template-57354"
   transform="matrix(4.8828125e-4,0,0,-4.8828125e-4,0,0)">
   <path
   d="M 8,1128 H 1137 V 0 H 8 Z"
   id="path19"
   inkscape:connector-curvature="0" />
  </g>
  <g
   id="bullet-char-template-10146"
   transform="matrix(4.8828125e-4,0,0,-4.8828125e-4,0,0)">
   <path
   d="M 174,0 602,739 174,1481 1456,739 Z M 1358,739 309,1346 659,739 Z"
   id="path22"
   inkscape:connector-curvature="0" />
  </g>
  <g
   id="bullet-char-template-10132"
   transform="matrix(4.8828125e-4,0,0,-4.8828125e-4,0,0)">
   <path
   d="M 2015,739 1276,0 H 717 l 543,543 H 174 v 393 h 1086 l -543,545 h 557 z"
   id="path25"
   inkscape:connector-curvature="0" />
  </g>
  <g
   id="bullet-char-template-10007"
   transform="matrix(4.8828125e-4,0,0,-4.8828125e-4,0,0)">
   <path
   d="m 0,-2 c -7,16 -16,29 -25,39 l 381,530 c -94,256 -141,385 -141,387 0,25 13,38 40,38 9,0 21,-2 34,-5 21,4 42,12 65,25 l 27,-13 111,-251 280,301 64,-25 24,25 c 21,-10 41,-24 62,-43 C 886,937 835,863 770,784 769,783 710,716 594,584 L 774,223 c 0,-27 -21,-55 -63,-84 l 16,-20 C 717,90 699,76 672,76 641,76 570,178 457,381 L 164,-76 c -22,-34 -53,-51 -92,-51 -42,0 -63,17 -64,51 -7,9 -10,24 -10,44 0,9 1,19 2,30 z"
   id="path28"
   inkscape:connector-curvature="0" />
  </g>
  <g
   id="bullet-char-template-10004"
   transform="matrix(4.8828125e-4,0,0,-4.8828125e-4,0,0)">
   <path
   d="M 285,-33 C 182,-33 111,30 74,156 52,228 41,333 41,471 c 0,78 14,145 41,201 34,71 87,106 158,106 53,0 88,-31 106,-94 l 23,-176 c 8,-64 28,-97 59,-98 l 735,706 c 11,11 33,17 66,17 42,0 63,-15 63,-46 V 965 c 0,-36 -10,-64 -30,-84 L 442,47 C 390,-6 338,-33 285,-33 Z"
   id="path31"
   inkscape:connector-curvature="0" />
  </g>
  <g
   id="bullet-char-template-9679"
   transform="matrix(4.8828125e-4,0,0,-4.8828125e-4,0,0)">
   <path
   d="M 813,0 C 632,0 489,54 383,161 276,268 223,411 223,592 c 0,181 53,324 160,431 106,107 249,161 430,161 179,0 323,-54 432,-161 108,-107 162,-251 162,-431 0,-180 -54,-324 -162,-431 C 1136,54 992,0 813,0 Z"
   id="path34"
   inkscape:connector-curvature="0" />
  </g>
  <g
   id="bullet-char-template-8226"
   transform="matrix(4.8828125e-4,0,0,-4.8828125e-4,0,0)">
   <path
   d="m 346,457 c -73,0 -137,26 -191,78 -54,51 -81,114 -81,188 0,73 27,136 81,188 54,52 118,78 191,78 73,0 134,-26 185,-79 51,-51 77,-114 77,-187 0,-75 -25,-137 -76,-188 -50,-52 -112,-78 -186,-78 z"
   id="path37"
   inkscape:connector-curvature="0" />
  </g>
  <g
   id="bullet-char-template-8211"
   transform="matrix(4.8828125e-4,0,0,-4.8828125e-4,0,0)">
   <path
   d="M -4,459 H 1135 V 606 H -4 Z"
   id="path40"
   inkscape:connector-curvature="0" />
  </g>
  <g
   id="bullet-char-template-61548"
   transform="matrix(4.8828125e-4,0,0,-4.8828125e-4,0,0)">
   <path
   d="m 173,740 c 0,163 58,303 173,419 116,115 255,173 419,173 163,0 302,-58 418,-173 116,-116 174,-256 174,-419 0,-163 -58,-303 -174,-418 C 1067,206 928,148 765,148 601,148 462,206 346,322 231,437 173,577 173,740 Z"
   id="path43"
   inkscape:connector-curvature="0" />
  </g>
 </defs>
 <defs
   class="TextEmbeddedBitmaps"
   id="defs48" />
 
 
<g
   id="g53"
   transform="matrix(0.56130907,0,0,0.56130907,182.6933,8057.5646)"
   style="fill:#e9a447;fill-opacity:1">
  <g
   id="id3"
   class="Master_Slide"
   style="fill:#e9a447;fill-opacity:1">
   <g
   id="bg-id3"
   class="Background"
   style="fill:#e9a447;fill-opacity:1" />
   <g
   id="bo-id3"
   class="BackgroundObjects"
   style="fill:#e9a447;fill-opacity:1" />
  </g>
 </g><path
   id="path853"
   style="opacity:1;fill:#e9a447;fill-opacity:1;fill-rule:evenodd;stroke-width:1470.22460938;stroke-linejoin:round"
   d="M 25118.53,12683.383 A 12357.851,12357.851 0 0 1 12760.68,25041.234 12357.851,12357.851 0 0 1 402.83005,12683.383 12357.851,12357.851 0 0 1 12760.68,325.53267 12357.851,12357.851 0 0 1 25118.53,12683.383 Z M 12102.856,2564.7378 c -788.068,0 -1414.97,179.0715 -1880.647,528.3287 -465.6767,349.2572 -698.467,788.123 -698.467,1316.4851 0,268.6605 98.4728,483.5864 304.446,653.7367 197.016,179.1069 420.897,232.7705 653.735,179.04 420.899,-80.5988 680.689,-188.0913 770.241,-331.3753 89.553,-152.2407 125.29,-349.2414 107.378,-599.9903 -17.909,-259.7037 35.864,-465.6021 161.237,-590.9766 134.331,-134.3292 420.846,-205.9692 886.521,-205.9692 474.631,0 788.085,232.7882 949.281,680.5536 80.599,223.8827 125.41,429.848 143.321,635.8193 17.912,197.0184 17.912,367.1312 0,510.4152 -149.248,1154.7068 -374.395,2268.0993 -687.313,3358.2563 h -2769.42 c -492.541,-17.9115 -859.7628,-26.8761 -1092.6003,-35.8308 -241.7942,0 -420.8165,-35.7324 -555.1477,-89.4649 -125.3725,-44.7758 -205.9771,-134.3982 -241.7981,-268.7274 -35.821,-125.3745 -89.5948,-295.5463 -161.2368,-519.4271 l -89.5751,-599.9903 c -53.7325,-53.7325 -161.166,-80.5633 -322.3615,-80.5633 -170.1502,0 -259.7194,44.8092 -277.6289,125.406 l 53.7443,2220.9234 -53.7443,2203.0061 c 17.9095,80.597 107.4787,125.294 277.6289,125.294 161.1955,8.954 268.629,-17.821 322.3615,-89.465 l 89.5751,-555.258 c 71.642,-232.838 125.4158,-411.968 161.2368,-537.343 35.821,-116.419 116.4256,-196.969 241.7981,-250.699 134.3312,-53.733 313.3535,-89.637 555.1477,-98.591 232.8375,-17.91 600.0593,-26.821 1092.6003,-44.733 h 2309.823 c -263.395,867.46 -512.492,1723.732 -742.636,2561.199 -170.15,653.736 -304.474,1208.947 -411.937,1683.579 -13.27,53.08 -23.936,101.262 -36.057,152.223 h -1119.193 c -492.541,-17.912 -859.7628,-26.877 -1092.6003,-35.831 -241.7942,0 -420.8165,-35.731 -555.1477,-89.463 -125.3725,-44.778 -205.9771,-134.398 -241.7981,-268.73 -35.821,-125.372 -89.5948,-295.544 -161.2368,-519.427 l -89.5751,-599.99 c -53.7325,-53.733 -161.166,-80.563 -322.3615,-80.563 -170.1502,0 -259.7194,44.809 -277.6289,125.408 l 53.7443,2220.921 -53.7443,2203.006 c 17.9095,80.599 107.4787,125.294 277.6289,125.294 161.1955,8.957 268.629,-17.821 322.3615,-89.463 l 89.5751,-555.258 c 71.642,-232.839 125.4158,-411.97 161.2368,-537.344 35.821,-116.42 116.4256,-196.968 241.7981,-250.7 134.3312,-53.733 313.3535,-89.634 555.1477,-98.591 232.8375,-17.91 600.0593,-26.821 1092.6003,-44.731 h 847.536 l -274.361,1701.493 c -107.464,734.335 -116.482,1379.168 -26.929,1952.305 89.554,564.186 241.85,1056.658 438.866,1486.514 367.167,868.664 1217.843,1325.453 2552.184,1370.231 367.167,8.955 707.446,-26.9 1011.927,-125.408 313.435,-89.551 582.134,-214.967 814.972,-385.119 223.883,-161.196 403.009,-358.141 519.429,-590.977 116.42,-232.837 170.188,-483.61 143.321,-743.312 -80.598,-519.407 -385.082,-797.066 -895.534,-832.889 -474.632,-44.775 -788.139,17.904 -940.38,188.054 -143.284,161.196 -205.963,385.137 -188.054,662.751 17.912,286.572 -0.02,492.531 -71.659,617.905 -62.688,116.418 -268.649,188.005 -617.906,214.869 -528.362,26.867 -850.669,-179.095 -984.998,-617.905 -143.286,-483.587 -188.152,-868.62 -134.42,-1146.235 53.731,-456.722 179.143,-1056.684 367.204,-1817.886 152.81,-590.399 333.366,-1236.244 540.048,-1934.391 h 2603.226 c 859.709,0 1379.178,44.814 1558.285,143.322 205.971,98.508 340.294,367.143 411.936,788.044 l 116.393,555.258 c 53.732,80.597 152.264,116.329 313.459,89.463 152.241,-17.912 259.728,-62.607 313.46,-125.294 -53.732,-967.173 -80.673,-1701.51 -80.673,-2203.006 0,-519.407 26.941,-1253.749 80.673,-2220.921 -53.732,-80.599 -161.219,-125.408 -313.46,-125.408 -161.195,0 -259.727,26.83 -313.459,80.563 l -116.393,599.99 c -71.642,411.945 -205.965,662.778 -411.936,770.241 -179.107,98.509 -698.576,143.21 -1558.285,143.21 h -2162.22 c 173.364,-607.66 332.813,-1178.941 478.641,-1701.495 205.973,-779.111 349.308,-1334.322 420.952,-1683.577 65.113,-334.866 127.464,-672.231 185.236,-1011.929 h 1077.391 c 859.709,0 1379.178,44.815 1558.285,143.324 205.971,98.508 340.294,367.143 411.936,788.042 l 116.393,555.258 c 53.732,80.599 152.264,116.331 313.459,89.465 152.241,-17.912 259.728,-62.607 313.46,-125.294 -53.732,-967.175 -80.673,-1701.5102 -80.673,-2203.0061 0,-519.4094 26.941,-1253.7487 80.673,-2220.9234 -53.732,-80.5968 -161.219,-125.406 -313.46,-125.406 -161.195,0 -259.727,26.8308 -313.459,80.5633 l -116.393,599.9903 c -71.642,411.9425 -205.965,662.7761 -411.936,770.2391 -179.107,98.5102 -698.576,143.2111 -1558.285,143.2111 h -861.508 c 57.682,-490.5486 106.221,-994.7262 145.125,-1513.4405 116.418,-1558.2242 -80.579,-2722.3485 -582.075,-3483.5501 -510.452,-761.2016 -1289.601,-1137.3329 -2346.327,-1137.3329 z"
   inkscape:connector-curvature="0" /></svg>