<?xml version="1.0" encoding="UTF-8" standalone="no"?>
<svg
   xmlns:ooo="http://xml.openoffice.org/svg/export"
   xmlns:dc="http://purl.org/dc/elements/1.1/"
   xmlns:cc="http://creativecommons.org/ns#"
   xmlns:rdf="http://www.w3.org/1999/02/22-rdf-syntax-ns#"
   xmlns:svg="http://www.w3.org/2000/svg"
   xmlns="http://www.w3.org/2000/svg"
   xmlns:sodipodi="http://sodipodi.sourceforge.net/DTD/sodipodi-0.dtd"
   xmlns:inkscape="http://www.inkscape.org/namespaces/inkscape"
   version="1.2"
   width="24mm"
   height="24mm"
   viewBox="0 0 2400 2400"
   preserveAspectRatio="xMidYMid"
   xml:space="preserve"
   id="svg271"
   sodipodi:docname="icon.svg"
   inkscape:version="0.92.5 (2060ec1f9f, 2020-04-08)"
   style="fill-rule:evenodd;stroke-width:28.22200012;stroke-linejoin:round"
   inkscape:export-filename="/home/data/Paolo/Share/Web Team/curcumy/lab/icon.png"
   inkscape:export-xdpi="25"
   inkscape:export-ydpi="25"><metadata
   id="metadata275"><rdf:RDF><cc:Work
       rdf:about=""><dc:format>image/svg+xml</dc:format><dc:type
         rdf:resource="http://purl.org/dc/dcmitype/StillImage" /><dc:title></dc:title></cc:Work></rdf:RDF></metadata><sodipodi:namedview
   pagecolor="#ffffff"
   bordercolor="#666666"
   borderopacity="1"
   objecttolerance="10"
   gridtolerance="10"
   guidetolerance="10"
   inkscape:pageopacity="0"
   inkscape:pageshadow="2"
   inkscape:window-width="1920"
   inkscape:window-height="978"
   id="namedview273"
   showgrid="false"
   inkscape:zoom="6.1846354"
   inkscape:cx="60.472441"
   inkscape:cy="60.472441"
   inkscape:window-x="0"
   inkscape:window-y="0"
   inkscape:window-maximized="1"
   inkscape:current-layer="svg271" />
 <defs
   class="ClipPathGroup"
   id="defs8">
  <clipPath
   id="presentation_clip_path"
   clipPathUnits="userSpaceOnUse">
   <rect
   x="0"
   y="0"
   width="17348"
   height="17348"
   id="rect2" />
  </clipPath>
  <clipPath
   id="presentation_clip_path_shrink"
   clipPathUnits="userSpaceOnUse">
   <rect
   x="17"
   y="17"
   width="17314"
   height="17314"
   id="rect5" />
  </clipPath>
 
  
  
 
   
  
    
   
     
    
      
      
      
     
   
  
    
   
     
    
      
     
       
       
      
       
       
       
      
        
       
         
         
        </defs>
 <defs
   class="TextShapeIndex"
   id="defs14">
  <g
   ooo:slide="id1"
   ooo:id-list="id4 id5 id6"
   id="g10" />
  <g
   ooo:slide="id2"
   ooo:id-list="id7 id8 id9 id10 id11 id12 id13 id14 id15 id16 id17 id18 id19 id20 id21 id22 id23 id24 id25 id26 id27 id28 id29"
   id="g12" />
 </defs>
 <defs
   class="EmbeddedBulletChars"
   id="defs46">
  <g
   id="bullet-char-template-57356"
   transform="matrix(4.8828125e-4,0,0,-4.8828125e-4,0,0)">
   <path
   d="M 580,1141 1163,571 580,0 -4,571 Z"
   id="path16"
   inkscape:connector-curvature="0" />
  </g>
  <g
   id="bullet-char-template-57354"
   transform="matrix(4.8828125e-4,0,0,-4.8828125e-4,0,0)">
   <path
   d="M 8,1128 H 1137 V 0 H 8 Z"
   id="path19"
   inkscape:connector-curvature="0" />
  </g>
  <g
   id="bullet-char-template-10146"
   transform="matrix(4.8828125e-4,0,0,-4.8828125e-4,0,0)">
   <path
   d="M 174,0 602,739 174,1481 1456,739 Z M 1358,739 309,1346 659,739 Z"
   id="path22"
   inkscape:connector-curvature="0" />
  </g>
  <g
   id="bullet-char-template-10132"
   transform="matrix(4.8828125e-4,0,0,-4.8828125e-4,0,0)">
   <path
   d="M 2015,739 1276,0 H 717 l 543,543 H 174 v 393 h 1086 l -543,545 h 557 z"
   id="path25"
   inkscape:connector-curvature="0" />
  </g>
  <g
   id="bullet-char-template-10007"
   transform="matrix(4.8828125e-4,0,0,-4.8828125e-4,0,0)">
   <path
   d="m 0,-2 c -7,16 -16,29 -25,39 l 381,530 c -94,256 -141,385 -141,387 0,25 13,38 40,38 9,0 21,-2 34,-5 21,4 42,12 65,25 l 27,-13 111,-251 280,301 64,-25 24,25 c 21,-10 41,-24 62,-43 C 886,937 835,863 770,784 769,783 710,716 594,584 L 774,223 c 0,-27 -21,-55 -63,-84 l 16,-20 C 717,90 699,76 672,76 641,76 570,178 457,381 L 164,-76 c -22,-34 -53,-51 -92,-51 -42,0 -63,17 -64,51 -7,9 -10,24 -10,44 0,9 1,19 2,30 z"
   id="path28"
   inkscape:connector-curvature="0" />
  </g>
  <g
   id="bullet-char-template-10004"
   transform="matrix(4.8828125e-4,0,0,-4.8828125e-4,0,0)">
   <path
   d="M 285,-33 C 182,-33 111,30 74,156 52,228 41,333 41,471 c 0,78 14,145 41,201 34,71 87,106 158,106 53,0 88,-31 106,-94 l 23,-176 c 8,-64 28,-97 59,-98 l 735,706 c 11,11 33,17 66,17 42,0 63,-15 63,-46 V 965 c 0,-36 -10,-64 -30,-84 L 442,47 C 390,-6 338,-33 285,-33 Z"
   id="path31"
   inkscape:connector-curvature="0" />
  </g>
  <g
   id="bullet-char-template-9679"
   transform="matrix(4.8828125e-4,0,0,-4.8828125e-4,0,0)">
   <path
   d="M 813,0 C 632,0 489,54 383,161 276,268 223,411 223,592 c 0,181 53,324 160,431 106,107 249,161 430,161 179,0 323,-54 432,-161 108,-107 162,-251 162,-431 0,-180 -54,-324 -162,-431 C 1136,54 992,0 813,0 Z"
   id="path34"
   inkscape:connector-curvature="0" />
  </g>
  <g
   id="bullet-char-template-8226"
   transform="matrix(4.8828125e-4,0,0,-4.8828125e-4,0,0)">
   <path
   d="m 346,457 c -73,0 -137,26 -191,78 -54,51 -81,114 -81,188 0,73 27,136 81,188 54,52 118,78 191,78 73,0 134,-26 185,-79 51,-51 77,-114 77,-187 0,-75 -25,-137 -76,-188 -50,-52 -112,-78 -186,-78 z"
   id="path37"
   inkscape:connector-curvature="0" />
  </g>
  <g
   id="bullet-char-template-8211"
   transform="matrix(4.8828125e-4,0,0,-4.8828125e-4,0,0)">
   <path
   d="M -4,459 H 1135 V 606 H -4 Z"
   id="path40"
   inkscape:connector-curvature="0" />
  </g>
  <g
   id="bullet-char-template-61548"
   transform="matrix(4.8828125e-4,0,0,-4.8828125e-4,0,0)">
   <path
   d="m 173,740 c 0,163 58,303 173,419 116,115 255,173 419,173 163,0 302,-58 418,-173 116,-116 174,-256 174,-419 0,-163 -58,-303 -174,-418 C 1067,206 928,148 765,148 601,148 462,206 346,322 231,437 173,577 173,740 Z"
   id="path43"
   inkscape:connector-curvature="0" />
  </g>
 </defs>
 <defs
   class="TextEmbeddedBitmaps"
   id="defs48" />
 
 
<g
   id="g2726"
   transform="matrix(0.18860526,0,0,0.18860526,-6.5383086,-7.9117156)"><g
     style="fill:#ffffff"
     transform="matrix(0.56130907,0,0,0.56130907,182.6933,-4742.4349)"
     id="g53">
  <g
   style="fill:#ffffff"
   class="Master_Slide"
   id="id3">
   <g
   style="fill:#ffffff"
   class="Background"
   id="bg-id3" />
   <g
   style="fill:#ffffff"
   class="BackgroundObjects"
   id="bo-id3" />
  </g>
 </g><path
     d="m 6071.6253,1735.335 c -361.4357,0 -648.9414,82.1445 -862.517,242.3262 -213.5757,160.1817 -320.3635,361.4357 -320.3635,603.7619 0,123.2167 45.1795,221.7901 139.6456,299.8273 90.3589,82.1445 193.0395,106.7879 299.8273,82.1445 193.0396,-36.965 312.1491,-86.2517 353.2213,-151.9673 41.0722,-69.8228 57.5011,-160.1817 49.2867,-275.184 -8.2145,-119.1095 16.4289,-213.5756 73.93,-271.0767 61.6084,-61.6084 193.0395,-94.4662 406.6152,-94.4662 217.6828,0 361.4357,106.7878 435.3657,312.149 36.965,102.6806 57.5011,197.1468 65.7156,291.6129 8.2144,90.3589 8.2144,168.3962 0,234.1118 -78.0373,603.7619 -201.254,1182.8804 -377.8646,1749.6773 -176.6106,562.6897 -340.8996,1117.1649 -488.7597,1655.2112 -78.0372,299.8273 -139.6456,554.4752 -188.9323,772.1581 -53.3939,213.5756 -86.2517,390.1862 -102.6805,521.6174 l -164.289,1018.5915 c -49.2867,336.7924 -53.3939,632.5125 -12.3217,895.3748 41.0723,258.7551 110.8951,484.6523 201.254,681.7993 168.3962,398.401 558.5824,607.869 1170.5588,628.405 168.3962,4.107 324.4707,-12.322 464.1163,-57.501 143.7528,-41.072 266.9695,-98.573 373.7573,-176.611 102.6806,-73.93 184.8251,-164.289 238.219,-271.076 53.3939,-106.788 78.0373,-221.791 65.7156,-340.9 -36.965,-238.219 -176.6106,-365.5429 -410.7224,-381.9718 -217.6828,-20.5362 -361.4357,8.2144 -431.2585,86.2517 -65.7156,73.93 -94.4661,176.6106 -86.2517,303.9341 8.2145,131.432 0,225.898 -32.8578,283.399 -28.7505,53.394 -123.2167,86.252 -283.3984,98.573 -242.3262,12.322 -390.1863,-82.144 -451.7946,-283.398 -65.7156,-221.7903 -86.2517,-398.4009 -61.6084,-525.7248 24.6434,-209.4685 82.1445,-484.6525 168.3962,-833.7665 90.3589,-349.114 201.254,-739.3003 332.6851,-1170.5588 127.3239,-435.3657 238.219,-833.7664 336.7924,-1186.9876 94.4661,-357.3285 160.1817,-611.9764 193.0395,-772.1581 57.5011,-295.7201 110.895,-595.5475 151.9673,-899.482 41.0722,-303.9346 73.93,-620.1908 98.5733,-948.7687 53.3939,-714.657 -36.965,-1248.5961 -266.9695,-1597.7101 -234.1118,-349.114 -591.4402,-521.6174 -1076.0926,-521.6174 z"
     id="path88"
     inkscape:connector-curvature="0"
     style="fill:#ffffff;fill-opacity:1;fill-rule:evenodd;stroke:none;stroke-width:115.91407013;stroke-linejoin:round" /><path
     style="fill:#ffffff;fill-opacity:1;fill-rule:evenodd;stroke:none;stroke-width:115.91407013;stroke-linejoin:round"
     inkscape:connector-curvature="0"
     id="path95"
     d="m 5126.9638,7945.4574 c -225.8973,8.2144 -394.2935,12.3217 -501.0813,20.5361 -110.8951,4.1072 -193.0395,20.5361 -254.6479,45.1795 -57.5011,24.6433 -94.4661,61.6083 -110.895,115.0022 -16.4289,57.5012 -41.0723,139.6456 -73.9301,246.4335 l -41.0722,254.6478 c -24.6434,32.8578 -73.93,45.1795 -147.8601,41.0723 -78.0372,0 -119.1095,-20.5361 -127.3239,-57.5012 l 24.6433,-1010.377 -24.6433,-1018.5915 c 8.2144,-36.965 49.2867,-57.5012 127.3239,-57.5012 73.9301,0 123.2167,12.3217 147.8601,36.9651 l 41.0722,275.184 c 32.8578,102.6805 57.5012,180.7178 73.9301,238.2189 16.4289,61.6084 53.3939,102.6806 110.895,123.2167 61.6084,24.6434 143.7528,41.0723 254.6479,41.0723 106.7878,4.1072 275.184,8.2144 501.0813,16.4289 h 2616.3015 c 394.2935,0 632.5125,-20.5361 714.657,-65.7156 94.4661,-49.2867 156.0745,-164.289 188.9323,-353.2212 l 53.3939,-275.184 c 24.6433,-24.6434 69.8228,-36.9651 143.7528,-36.9651 69.8228,0 119.1095,20.5362 143.7528,57.5012 -24.6433,443.5801 -36.965,780.3725 -36.965,1018.5915 0,230.0045 12.3217,566.7969 36.965,1010.377 -24.6433,28.7506 -73.93,49.2867 -143.7528,57.5012 -73.93,12.3216 -119.1095,-4.1073 -143.7528,-41.0723 l -53.3939,-254.6478 c -32.8578,-193.0396 -94.4662,-316.2563 -188.9323,-361.4357 -82.1445,-45.1795 -320.3635,-65.7156 -714.657,-65.7156 z" /><path
     style="fill:#ffffff;fill-opacity:1;fill-rule:evenodd;stroke:none;stroke-width:115.91407013;stroke-linejoin:round"
     inkscape:connector-curvature="0"
     id="path102"
     d="m 5126.9638,5238.7969 c -225.8973,8.2144 -394.2935,12.3217 -501.0813,20.5361 -110.8951,4.1072 -193.0395,20.5361 -254.6479,45.1795 -57.5011,24.6433 -94.4661,61.6083 -110.895,115.0022 -16.4289,57.5012 -41.0723,139.6457 -73.9301,246.4335 l -41.0722,254.6478 c -24.6434,32.8578 -73.93,45.1795 -147.8601,41.0723 -78.0372,0 -119.1095,-20.5361 -127.3239,-57.5011 l 24.6433,-1010.3771 -24.6433,-1018.5915 c 8.2144,-36.965 49.2867,-57.5011 127.3239,-57.5011 73.9301,0 123.2167,12.3216 147.8601,36.965 l 41.0722,275.184 c 32.8578,102.6806 57.5012,180.7178 73.9301,238.219 16.4289,61.6083 53.3939,102.6805 110.895,123.2167 61.6084,24.6433 143.7528,41.0722 254.6479,41.0722 106.7878,4.1072 275.184,8.2145 501.0813,16.4289 h 2616.3015 c 394.2935,0 632.5125,-20.5361 714.657,-65.7156 94.4661,-49.2867 156.0745,-164.2889 188.9323,-353.2212 l 53.3939,-275.184 c 24.6433,-24.6434 69.8228,-36.965 143.7528,-36.965 69.8228,0 119.1095,20.5361 143.7528,57.5011 -24.6433,443.5802 -36.965,780.3725 -36.965,1018.5915 0,230.0045 12.3217,566.7969 36.965,1010.3771 -24.6433,28.7505 -73.93,49.2866 -143.7528,57.5011 -73.93,12.3217 -119.1095,-4.1072 -143.7528,-41.0723 l -53.3939,-254.6478 c -32.8578,-193.0395 -94.4662,-316.2563 -188.9323,-361.4357 -82.1445,-45.1795 -320.3635,-65.7156 -714.657,-65.7156 z" /><path
     style="fill:#ffffff;fill-opacity:1;fill-rule:evenodd;stroke:none;stroke-width:115.91408539;stroke-linejoin:round"
     inkscape:connector-curvature="0"
     id="path113"
     d="m 6367.3462,199.23308 c 3548.642,0 6259.4098,2710.76782 6259.4098,6259.40982 0,3548.6411 -2710.7678,6259.4091 -6259.4098,6259.4091 -3548.642,0 -6259.40942,-2710.768 -6259.40942,-6259.4091 0,-3548.642 2710.76742,-6259.40982 6259.40942,-6259.40982 z m -8.214,887.16042 c 3043.453,0 5368.1418,2320.5814 5368.1418,5364.0344 0,3043.454 -2324.6888,5368.1421 -5368.1418,5368.1421 -3043.453,0 -5364.03512,-2324.6881 -5364.03512,-5368.1421 0,-3043.453 2320.58212,-5364.0344 5364.03512,-5364.0344 z" /></g></svg>