<?xml version="1.0" encoding="UTF-8" standalone="no"?>
<svg
   xmlns:ooo="http://xml.openoffice.org/svg/export"
   xmlns:dc="http://purl.org/dc/elements/1.1/"
   xmlns:cc="http://creativecommons.org/ns#"
   xmlns:rdf="http://www.w3.org/1999/02/22-rdf-syntax-ns#"
   xmlns:svg="http://www.w3.org/2000/svg"
   xmlns="http://www.w3.org/2000/svg"
   xmlns:sodipodi="http://sodipodi.sourceforge.net/DTD/sodipodi-0.dtd"
   xmlns:inkscape="http://www.inkscape.org/namespaces/inkscape"
   version="1.2"
   width="16mm"
   height="16mm"
   viewBox="0 0 1600 1600"
   preserveAspectRatio="xMidYMid"
   xml:space="preserve"
   id="svg271"
   sodipodi:docname="icon.svg"
   inkscape:version="0.92.5 (2060ec1f9f, 2020-04-08)"
   style="fill-rule:evenodd;stroke-width:28.22200012;stroke-linejoin:round"
   inkscape:export-filename="/home/data/Paolo/Share/Web Team/curcumy/lab/icon.png"
   inkscape:export-xdpi="25"
   inkscape:export-ydpi="25"><metadata
   id="metadata275"><rdf:RDF><cc:Work
       rdf:about=""><dc:format>image/svg+xml</dc:format><dc:type
         rdf:resource="http://purl.org/dc/dcmitype/StillImage" /><dc:title></dc:title></cc:Work></rdf:RDF></metadata><sodipodi:namedview
   pagecolor="#ffffff"
   bordercolor="#666666"
   borderopacity="1"
   objecttolerance="10"
   gridtolerance="10"
   guidetolerance="10"
   inkscape:pageopacity="0"
   inkscape:pageshadow="2"
   inkscape:window-width="1714"
   inkscape:window-height="913"
   id="namedview273"
   showgrid="false"
   inkscape:zoom="11.294401"
   inkscape:cx="30.23622"
   inkscape:cy="30.23622"
   inkscape:window-x="28"
   inkscape:window-y="62"
   inkscape:window-maximized="0"
   inkscape:current-layer="svg271" />
 <defs
   class="ClipPathGroup"
   id="defs8">
  <clipPath
   id="presentation_clip_path"
   clipPathUnits="userSpaceOnUse">
   <rect
   x="0"
   y="0"
   width="17348"
   height="17348"
   id="rect2" />
  </clipPath>
  <clipPath
   id="presentation_clip_path_shrink"
   clipPathUnits="userSpaceOnUse">
   <rect
   x="17"
   y="17"
   width="17314"
   height="17314"
   id="rect5" />
  </clipPath>
 
  
  
 
   
  
    
   
     
    
      
      
      
     
   
  
    
   
     
    
      
     
       
       
      
       
       
       
      
        
       
         
         
        </defs>
 <defs
   class="TextShapeIndex"
   id="defs14">
  <g
   ooo:slide="id1"
   ooo:id-list="id4 id5 id6"
   id="g10" />
  <g
   ooo:slide="id2"
   ooo:id-list="id7 id8 id9 id10 id11 id12 id13 id14 id15 id16 id17 id18 id19 id20 id21 id22 id23 id24 id25 id26 id27 id28 id29"
   id="g12" />
 </defs>
 <defs
   class="EmbeddedBulletChars"
   id="defs46">
  <g
   id="bullet-char-template-57356"
   transform="matrix(4.8828125e-4,0,0,-4.8828125e-4,0,0)">
   <path
   d="M 580,1141 1163,571 580,0 -4,571 Z"
   id="path16"
   inkscape:connector-curvature="0" />
  </g>
  <g
   id="bullet-char-template-57354"
   transform="matrix(4.8828125e-4,0,0,-4.8828125e-4,0,0)">
   <path
   d="M 8,1128 H 1137 V 0 H 8 Z"
   id="path19"
   inkscape:connector-curvature="0" />
  </g>
  <g
   id="bullet-char-template-10146"
   transform="matrix(4.8828125e-4,0,0,-4.8828125e-4,0,0)">
   <path
   d="M 174,0 602,739 174,1481 1456,739 Z M 1358,739 309,1346 659,739 Z"
   id="path22"
   inkscape:connector-curvature="0" />
  </g>
  <g
   id="bullet-char-template-10132"
   transform="matrix(4.8828125e-4,0,0,-4.8828125e-4,0,0)">
   <path
   d="M 2015,739 1276,0 H 717 l 543,543 H 174 v 393 h 1086 l -543,545 h 557 z"
   id="path25"
   inkscape:connector-curvature="0" />
  </g>
  <g
   id="bullet-char-template-10007"
   transform="matrix(4.8828125e-4,0,0,-4.8828125e-4,0,0)">
   <path
   d="m 0,-2 c -7,16 -16,29 -25,39 l 381,530 c -94,256 -141,385 -141,387 0,25 13,38 40,38 9,0 21,-2 34,-5 21,4 42,12 65,25 l 27,-13 111,-251 280,301 64,-25 24,25 c 21,-10 41,-24 62,-43 C 886,937 835,863 770,784 769,783 710,716 594,584 L 774,223 c 0,-27 -21,-55 -63,-84 l 16,-20 C 717,90 699,76 672,76 641,76 570,178 457,381 L 164,-76 c -22,-34 -53,-51 -92,-51 -42,0 -63,17 -64,51 -7,9 -10,24 -10,44 0,9 1,19 2,30 z"
   id="path28"
   inkscape:connector-curvature="0" />
  </g>
  <g
   id="bullet-char-template-10004"
   transform="matrix(4.8828125e-4,0,0,-4.8828125e-4,0,0)">
   <path
   d="M 285,-33 C 182,-33 111,30 74,156 52,228 41,333 41,471 c 0,78 14,145 41,201 34,71 87,106 158,106 53,0 88,-31 106,-94 l 23,-176 c 8,-64 28,-97 59,-98 l 735,706 c 11,11 33,17 66,17 42,0 63,-15 63,-46 V 965 c 0,-36 -10,-64 -30,-84 L 442,47 C 390,-6 338,-33 285,-33 Z"
   id="path31"
   inkscape:connector-curvature="0" />
  </g>
  <g
   id="bullet-char-template-9679"
   transform="matrix(4.8828125e-4,0,0,-4.8828125e-4,0,0)">
   <path
   d="M 813,0 C 632,0 489,54 383,161 276,268 223,411 223,592 c 0,181 53,324 160,431 106,107 249,161 430,161 179,0 323,-54 432,-161 108,-107 162,-251 162,-431 0,-180 -54,-324 -162,-431 C 1136,54 992,0 813,0 Z"
   id="path34"
   inkscape:connector-curvature="0" />
  </g>
  <g
   id="bullet-char-template-8226"
   transform="matrix(4.8828125e-4,0,0,-4.8828125e-4,0,0)">
   <path
   d="m 346,457 c -73,0 -137,26 -191,78 -54,51 -81,114 -81,188 0,73 27,136 81,188 54,52 118,78 191,78 73,0 134,-26 185,-79 51,-51 77,-114 77,-187 0,-75 -25,-137 -76,-188 -50,-52 -112,-78 -186,-78 z"
   id="path37"
   inkscape:connector-curvature="0" />
  </g>
  <g
   id="bullet-char-template-8211"
   transform="matrix(4.8828125e-4,0,0,-4.8828125e-4,0,0)">
   <path
   d="M -4,459 H 1135 V 606 H -4 Z"
   id="path40"
   inkscape:connector-curvature="0" />
  </g>
  <g
   id="bullet-char-template-61548"
   transform="matrix(4.8828125e-4,0,0,-4.8828125e-4,0,0)">
   <path
   d="m 173,740 c 0,163 58,303 173,419 116,115 255,173 419,173 163,0 302,-58 418,-173 116,-116 174,-256 174,-419 0,-163 -58,-303 -174,-418 C 1067,206 928,148 765,148 601,148 462,206 346,322 231,437 173,577 173,740 Z"
   id="path43"
   inkscape:connector-curvature="0" />
  </g>
 </defs>
 <defs
   class="TextEmbeddedBitmaps"
   id="defs48" />
 
 
<g
   id="g53"
   transform="matrix(0.56130907,0,0,0.56130907,182.6933,-15942.435)"
   style="fill:#e9a447;fill-opacity:1">
  <g
   id="id3"
   class="Master_Slide"
   style="fill:#e9a447;fill-opacity:1">
   <g
   id="bg-id3"
   class="Background"
   style="fill:#e9a447;fill-opacity:1" />
   <g
   id="bo-id3"
   class="BackgroundObjects"
   style="fill:#e9a447;fill-opacity:1" />
  </g>
 </g><path
   id="logo"
   style="opacity:1;fill:#e9a447;fill-opacity:1;fill-rule:evenodd;stroke-width:94.65726471;stroke-linejoin:round"
   d="M 1593.2093,804.32651 A 795.63374,795.63374 0 0 1 797.57564,1599.9603 795.63374,795.63374 0 0 1 1.9419058,804.32651 795.63374,795.63374 0 0 1 797.57564,8.692733 795.63374,795.63374 0 0 1 1593.2093,804.32651 Z M 755.22299,152.85921 c -50.73803,0 -91.09979,11.52919 -121.08134,34.01534 -29.98158,22.48617 -44.96936,50.74159 -44.96936,84.75911 0,17.29707 6.34005,31.1346 19.60111,42.08941 12.6845,11.53135 27.09859,14.98647 42.08938,11.52704 27.0987,-5.18911 43.82466,-12.10977 49.59032,-21.33486 5.76568,-9.80166 8.06649,-22.48516 6.91334,-38.62908 -1.15315,-16.72049 2.30892,-29.9768 10.38088,-38.04875 8.64854,-8.64853 27.09521,-13.26084 57.07675,-13.26084 30.55811,0 50.73916,14.9875 61.11739,43.81592 5.1891,14.41419 8.07428,27.67489 9.22744,40.93594 1.15315,12.68451 1.15315,23.63685 0,32.8619 -9.60899,74.34332 -24.10461,146.02677 -44.25115,216.21412 H 622.61458 c -31.71125,-1.15314 -55.35407,-1.73034 -70.34482,-2.30687 -15.56736,0 -27.09336,-2.30051 -35.74191,-5.75992 -8.07194,-2.88285 -13.26142,-8.65295 -15.56772,-17.30146 -2.30625,-8.07198 -5.76832,-19.02808 -10.38087,-33.44229 l -5.76714,-38.62909 c -3.45944,-3.45939 -10.37628,-5.18679 -20.75453,-5.18679 -10.95479,0 -16.72145,2.88488 -17.87456,8.07399 l 3.46029,142.98931 -3.46029,141.83585 c 1.15311,5.18909 6.91977,8.06677 17.87456,8.06677 10.37825,0.57656 17.29509,-1.14738 20.75453,-5.75992 l 5.76714,-35.74915 c 4.61255,-14.99075 8.07462,-26.5237 10.38087,-34.59568 2.3063,-7.4954 7.49578,-12.68138 15.56772,-16.14078 8.64855,-3.45945 20.17455,-5.77093 35.74191,-6.34752 14.99075,-1.15312 38.63357,-1.72682 70.34482,-2.87996 h 148.71291 c -16.95808,55.84954 -32.99572,110.97876 -47.81299,164.89725 -10.95479,42.08946 -19.60286,77.83547 -26.5217,108.39358 -0.85438,3.41754 -1.54106,6.51957 -2.32137,9.80055 h -72.05685 c -31.71125,-1.15316 -55.35407,-1.73031 -70.34482,-2.30687 -15.56736,0 -27.09336,-2.30048 -35.74191,-5.7599 -8.07194,-2.88284 -13.26142,-8.65296 -15.56772,-17.3015 -2.30625,-8.07191 -5.76832,-19.02803 -10.38087,-33.44225 l -5.76714,-38.62908 c -3.45944,-3.45944 -10.37628,-5.18684 -20.75453,-5.18684 -10.95479,0 -16.72145,2.88493 -17.87456,8.07403 l 3.46029,142.98934 -3.46029,141.83584 c 1.15311,5.1892 6.91977,8.0668 17.87456,8.0668 10.37825,0.5766 17.29509,-1.1474 20.75453,-5.7599 l 5.76714,-35.7492 c 4.61255,-14.9908 8.07462,-26.5238 10.38087,-34.5957 2.3063,-7.4954 7.49578,-12.6814 15.56772,-16.1408 8.64855,-3.4595 20.17455,-5.7709 35.74191,-6.3476 14.99075,-1.153 38.63357,-1.7267 70.34482,-2.8799 h 54.56677 l -17.66419,109.5471 c -6.91885,47.2786 -7.49945,88.7948 -1.73379,125.6951 5.7657,36.3237 15.57094,68.0305 28.25545,95.7058 23.6393,55.9272 78.40823,85.3365 164.31692,88.2195 23.6393,0.5765 45.54745,-1.7319 65.15073,-8.0742 20.1799,-5.7656 37.47951,-13.8402 52.47031,-24.7951 14.4142,-10.3781 25.94685,-23.0581 33.44222,-38.0487 7.4954,-14.9908 10.9572,-31.1362 9.2275,-47.8566 -5.1892,-33.4409 -24.79271,-51.3173 -57.6571,-53.6238 -30.5581,-2.8827 -50.74263,1.1528 -60.54428,12.1075 -9.2251,10.3783 -13.26054,24.7963 -12.10744,42.6698 1.15316,18.4503 -10e-4,31.7105 -4.61369,39.7826 -4.036,7.4953 -17.29638,12.1042 -39.78253,13.8338 -34.01754,1.7297 -54.76849,-11.5307 -63.41701,-39.7826 -9.22508,-31.1346 -12.11377,-55.9242 -8.65436,-73.7978 3.4594,-29.405 11.5338,-68.0324 23.64175,-117.0407 9.83828,-38.0115 21.46295,-79.593 34.76977,-124.5417 h 167.6031 c 55.35059,0 88.79549,2.8852 100.32679,9.2275 13.2611,6.3423 21.9092,23.6378 26.5218,50.7365 l 7.4937,35.7492 c 3.4593,5.189 9.8031,7.4896 20.1814,5.7599 9.8016,-1.1532 16.722,-4.0308 20.1814,-8.0668 -3.4594,-62.2693 -5.194,-109.548 -5.194,-141.83584 0,-33.44099 1.7346,-80.71999 5.194,-142.98934 -3.4594,-5.1891 -10.3798,-8.07403 -20.1814,-8.07403 -10.3783,0 -16.7221,1.7274 -20.1814,5.18684 l -7.4937,38.62908 c -4.6126,26.52212 -13.2607,42.67151 -26.5218,49.59033 -11.5313,6.34223 -44.9762,9.22019 -100.32679,9.22019 H 850.67489 c 11.16161,-39.12282 21.42735,-75.9035 30.81624,-109.54702 13.26105,-50.16145 22.48946,-85.90743 27.10202,-108.39358 4.19217,-21.55964 8.20647,-43.2801 11.92605,-65.15078 h 69.36551 c 55.35059,0 88.79549,2.88523 100.32679,9.22748 13.2611,6.34224 21.9092,23.63778 26.5218,50.73646 l 7.4937,35.74915 c 3.4593,5.18914 9.8031,7.48964 20.1814,5.75992 9.8016,-1.15314 16.722,-4.03082 20.1814,-8.06677 -3.4594,-62.26939 -5.194,-109.54806 -5.194,-141.83585 0,-33.44096 1.7346,-80.71991 5.194,-142.98931 -3.4594,-5.18911 -10.3798,-8.07399 -20.1814,-8.07399 -10.3783,0 -16.7221,1.7274 -20.1814,5.18679 l -7.4937,38.62909 c -4.6126,26.52215 -13.2607,42.67151 -26.5218,49.59032 -11.5313,6.34224 -44.9762,9.22022 -100.32679,9.22022 h -55.46628 c 3.71374,-31.58292 6.83879,-64.0432 9.3435,-97.43963 7.49539,-100.32288 -5.18784,-175.27255 -37.47565,-224.28085 -32.86439,-49.00829 -83.02824,-73.22477 -151.06329,-73.22477 z"
   inkscape:connector-curvature="0"
   inkscape:label="#logo" /></svg>