<?xml version="1.0" encoding="UTF-8" standalone="no"?>
<svg
   xmlns:ooo="http://xml.openoffice.org/svg/export"
   xmlns:dc="http://purl.org/dc/elements/1.1/"
   xmlns:cc="http://creativecommons.org/ns#"
   xmlns:rdf="http://www.w3.org/1999/02/22-rdf-syntax-ns#"
   xmlns:svg="http://www.w3.org/2000/svg"
   xmlns="http://www.w3.org/2000/svg"
   xmlns:sodipodi="http://sodipodi.sourceforge.net/DTD/sodipodi-0.dtd"
   xmlns:inkscape="http://www.inkscape.org/namespaces/inkscape"
   version="1.2"
   width="256"
   height="400"
   viewBox="0 0 6773.3335 10583.334"
   preserveAspectRatio="xMidYMid"
   xml:space="preserve"
   id="svg271"
   sodipodi:docname="graphics (copy).svg"
   inkscape:version="0.92.5 (2060ec1f9f, 2020-04-08)"
   style="fill-rule:evenodd;stroke-width:28.22200012;stroke-linejoin:round"><metadata
   id="metadata275"><rdf:RDF><cc:Work
       rdf:about=""><dc:format>image/svg+xml</dc:format><dc:type
         rdf:resource="http://purl.org/dc/dcmitype/StillImage" /><dc:title></dc:title></cc:Work></rdf:RDF></metadata><sodipodi:namedview
   pagecolor="#ffffff"
   bordercolor="#666666"
   borderopacity="1"
   objecttolerance="10"
   gridtolerance="10"
   guidetolerance="10"
   inkscape:pageopacity="0"
   inkscape:pageshadow="2"
   inkscape:window-width="1535"
   inkscape:window-height="913"
   id="namedview273"
   showgrid="false"
   inkscape:zoom="0.25451307"
   inkscape:cx="333.39276"
   inkscape:cy="339.82145"
   inkscape:window-x="0"
   inkscape:window-y="0"
   inkscape:window-maximized="0"
   inkscape:current-layer="g1992"
   width="300mm"
   units="px" />
 <defs
   class="ClipPathGroup"
   id="defs8">
  <clipPath
   id="presentation_clip_path"
   clipPathUnits="userSpaceOnUse">
   <rect
   x="0"
   y="0"
   width="17348"
   height="17348"
   id="rect2" />
  </clipPath>
  <clipPath
   id="presentation_clip_path_shrink"
   clipPathUnits="userSpaceOnUse">
   <rect
   x="17"
   y="17"
   width="17314"
   height="17314"
   id="rect5" />
  </clipPath>
 
  
  
 
   
  
    
   
     
    
      
      
      
     
   
  
    
   
     
    
      
     
       
       
      </defs>
 <defs
   class="TextShapeIndex"
   id="defs14">
  <g
   ooo:slide="id1"
   ooo:id-list="id4 id5 id6"
   id="g10" />
  <g
   ooo:slide="id2"
   ooo:id-list="id7 id8 id9 id10 id11 id12 id13 id14 id15 id16 id17 id18 id19 id20 id21 id22 id23 id24 id25 id26 id27 id28 id29"
   id="g12" />
 </defs>
 <defs
   class="EmbeddedBulletChars"
   id="defs46">
  <g
   id="bullet-char-template-57356"
   transform="matrix(4.8828125e-4,0,0,-4.8828125e-4,0,0)">
   <path
   d="M 580,1141 1163,571 580,0 -4,571 Z"
   id="path16"
   inkscape:connector-curvature="0" />
  </g>
  <g
   id="bullet-char-template-57354"
   transform="matrix(4.8828125e-4,0,0,-4.8828125e-4,0,0)">
   <path
   d="M 8,1128 H 1137 V 0 H 8 Z"
   id="path19"
   inkscape:connector-curvature="0" />
  </g>
  <g
   id="bullet-char-template-10146"
   transform="matrix(4.8828125e-4,0,0,-4.8828125e-4,0,0)">
   <path
   d="M 174,0 602,739 174,1481 1456,739 Z M 1358,739 309,1346 659,739 Z"
   id="path22"
   inkscape:connector-curvature="0" />
  </g>
  <g
   id="bullet-char-template-10132"
   transform="matrix(4.8828125e-4,0,0,-4.8828125e-4,0,0)">
   <path
   d="M 2015,739 1276,0 H 717 l 543,543 H 174 v 393 h 1086 l -543,545 h 557 z"
   id="path25"
   inkscape:connector-curvature="0" />
  </g>
  <g
   id="bullet-char-template-10007"
   transform="matrix(4.8828125e-4,0,0,-4.8828125e-4,0,0)">
   <path
   d="m 0,-2 c -7,16 -16,29 -25,39 l 381,530 c -94,256 -141,385 -141,387 0,25 13,38 40,38 9,0 21,-2 34,-5 21,4 42,12 65,25 l 27,-13 111,-251 280,301 64,-25 24,25 c 21,-10 41,-24 62,-43 C 886,937 835,863 770,784 769,783 710,716 594,584 L 774,223 c 0,-27 -21,-55 -63,-84 l 16,-20 C 717,90 699,76 672,76 641,76 570,178 457,381 L 164,-76 c -22,-34 -53,-51 -92,-51 -42,0 -63,17 -64,51 -7,9 -10,24 -10,44 0,9 1,19 2,30 z"
   id="path28"
   inkscape:connector-curvature="0" />
  </g>
  <g
   id="bullet-char-template-10004"
   transform="matrix(4.8828125e-4,0,0,-4.8828125e-4,0,0)">
   <path
   d="M 285,-33 C 182,-33 111,30 74,156 52,228 41,333 41,471 c 0,78 14,145 41,201 34,71 87,106 158,106 53,0 88,-31 106,-94 l 23,-176 c 8,-64 28,-97 59,-98 l 735,706 c 11,11 33,17 66,17 42,0 63,-15 63,-46 V 965 c 0,-36 -10,-64 -30,-84 L 442,47 C 390,-6 338,-33 285,-33 Z"
   id="path31"
   inkscape:connector-curvature="0" />
  </g>
  <g
   id="bullet-char-template-9679"
   transform="matrix(4.8828125e-4,0,0,-4.8828125e-4,0,0)">
   <path
   d="M 813,0 C 632,0 489,54 383,161 276,268 223,411 223,592 c 0,181 53,324 160,431 106,107 249,161 430,161 179,0 323,-54 432,-161 108,-107 162,-251 162,-431 0,-180 -54,-324 -162,-431 C 1136,54 992,0 813,0 Z"
   id="path34"
   inkscape:connector-curvature="0" />
  </g>
  <g
   id="bullet-char-template-8226"
   transform="matrix(4.8828125e-4,0,0,-4.8828125e-4,0,0)">
   <path
   d="m 346,457 c -73,0 -137,26 -191,78 -54,51 -81,114 -81,188 0,73 27,136 81,188 54,52 118,78 191,78 73,0 134,-26 185,-79 51,-51 77,-114 77,-187 0,-75 -25,-137 -76,-188 -50,-52 -112,-78 -186,-78 z"
   id="path37"
   inkscape:connector-curvature="0" />
  </g>
  <g
   id="bullet-char-template-8211"
   transform="matrix(4.8828125e-4,0,0,-4.8828125e-4,0,0)">
   <path
   d="M -4,459 H 1135 V 606 H -4 Z"
   id="path40"
   inkscape:connector-curvature="0" />
  </g>
  <g
   id="bullet-char-template-61548"
   transform="matrix(4.8828125e-4,0,0,-4.8828125e-4,0,0)">
   <path
   d="m 173,740 c 0,163 58,303 173,419 116,115 255,173 419,173 163,0 302,-58 418,-173 116,-116 174,-256 174,-419 0,-163 -58,-303 -174,-418 C 1067,206 928,148 765,148 601,148 462,206 346,322 231,437 173,577 173,740 Z"
   id="path43"
   inkscape:connector-curvature="0" />
  </g>
 </defs>
 <defs
   class="TextEmbeddedBitmaps"
   id="defs48" />
 <g
   id="g53"
   transform="matrix(0.56130907,0,0,0.56130907,182.6933,-6959.1001)">
  <g
   id="id3"
   class="Master_Slide">
   <g
   id="bg-id3"
   class="Background" />
   <g
   id="bo-id3"
   class="BackgroundObjects" />
  </g>
 </g>
 <g
   id="g1992"
   transform="translate(-155.93502,-15419.059)"><g
     id="g2077"
     transform="translate(-51.978325,7432.9025)"><path
       transform="matrix(0.56130906,0,0,0.56130906,182.6933,-194.43529)"
       d="m 5873.2511,16809.524 c -546,0 -980,122 -1304,365 -323,244 -485,549 -485,917 0,183 70,335 210,454 139,120 291,161 456,125 293,-56 469,-134 533,-235 63,-101 88,-239 76,-413 -13,-184 26,-322 114,-414 89,-92 292,-137 610,-137 330,0 552,156 665,468 51,156 83,303 96,441 12,138 12,257 0,358 -115,910 -304,1792 -571,2646 -266,855 -514,1691 -743,2509 -113,450 -208,838 -284,1164 -78,326 -128,591 -154,793 l -247,1543 c -76,505 -81,956 -19,1351 63,395 165,739 305,1033 254,607 844,924 1769,951 254,9 489,-18 705,-82 216,-65 403,-154 562,-269 159,-115 279,-253 362,-414 81,-160 117,-333 103,-516 -62,-359 -272,-552 -627,-579 -330,-28 -545,16 -648,131 -100,115 -145,268 -132,461 12,203 -4,345 -49,428 -44,82 -186,133 -428,151 -367,19 -596,-124 -685,-427 -101,-340 -132,-606 -95,-799 39,-313 124,-733 257,-1261 134,-529 301,-1119 504,-1771 191,-662 359,-1261 505,-1799 145,-537 244,-925 295,-1164 89,-450 165,-905 229,-1365 63,-459 113,-937 152,-1433 76,-1084 -61,-1890 -409,-2419 -349,-528 -892,-792 -1628,-792 z"
       id="path57"
       inkscape:connector-curvature="0"
       style="fill:#e69b3a;stroke:none" /><g
       class="Group"
       id="g76"
       transform="matrix(0.56130907,0,0,0.56130907,-1090.7761,8226.0559)">
        <g
   class="com.sun.star.drawing.ClosedBezierShape"
   id="g67">
         <g
   id="id5">
          <rect
   class="BoundingBox"
   x="4809"
   y="9058"
   width="7749"
   height="3251"
   id="rect62"
   style="fill:none;stroke:none" />
          <path
   d="m 6713,11207 c -342,10 -596,19 -761,28 -166,9 -291,32 -381,69 -88,37 -145,96 -171,179 -25,83 -64,207 -113,372 l -59,386 c -37,46 -113,66 -227,62 -115,-5 -179,-35 -191,-90 l 39,-1529 -39,-1544 c 12,-55 76,-82 191,-82 114,0 190,18 227,55 l 59,413 c 49,156 88,278 113,365 26,88 83,150 171,186 90,37 215,58 381,62 165,5 419,12 761,21 h 3960 c 597,0 957,-32 1084,-96 140,-74 235,-253 286,-538 l 76,-413 c 39,-37 111,-55 220,-55 108,0 179,27 218,82 -39,671 -57,1185 -57,1544 0,349 18,859 57,1529 -39,46 -110,76 -218,90 -109,14 -181,-7 -220,-62 l -76,-386 c -51,-294 -146,-478 -286,-551 -127,-65 -487,-97 -1084,-97 z"
   id="path64"
   inkscape:connector-curvature="0"
   style="fill:#e69b3a;stroke:none" />
         </g>
        </g>
        <g
   class="com.sun.star.drawing.ClosedBezierShape"
   id="g74">
         <g
   id="id6">
          <rect
   class="BoundingBox"
   x="4809"
   y="4964"
   width="7749"
   height="3251"
   id="rect69"
   style="fill:none;stroke:none" />
          <path
   d="m 6713,7113 c -342,10 -596,19 -761,28 -166,9 -291,32 -381,69 -88,37 -145,96 -171,179 -25,83 -64,207 -113,372 l -59,386 c -37,46 -113,66 -227,62 -115,-5 -179,-35 -191,-90 l 39,-1529 -39,-1544 c 12,-55 76,-82 191,-82 114,0 190,18 227,55 l 59,413 c 49,156 88,278 113,365 26,88 83,150 171,186 90,37 215,58 381,62 165,5 419,12 761,21 h 3960 c 597,0 957,-32 1084,-96 140,-74 235,-253 286,-538 l 76,-413 c 39,-37 111,-55 220,-55 108,0 179,27 218,82 -39,671 -57,1185 -57,1544 0,349 18,859 57,1529 -39,46 -110,76 -218,90 -109,14 -181,-7 -220,-62 l -76,-386 c -51,-294 -146,-478 -286,-551 -127,-65 -489,-97 -1084,-97 z"
   id="path71"
   inkscape:connector-curvature="0"
   style="fill:#e69b3a;stroke:none" />
         </g>
        </g>
       </g></g></g>
</svg>